Coordinates
version=1
nRows=15
nColumns=63
inDegrees=yes

Units are S.I. units (second, meters, Newtons, ...)
If the header above contains a line with 'inDegrees', this indicates whether rotational values are in degrees (yes) or radians (no).

endheader
time	pelvis_tilt	pelvis_list	pelvis_rotation	pelvis_tx	pelvis_ty	pelvis_tz	hip_flexion_r	hip_adduction_r	hip_rotation_r	knee_angle_r	knee_angle_r_beta	ankle_angle_r	subtalar_angle_r	mtp_angle_r	hip_flexion_l	hip_adduction_l	hip_rotation_l	knee_angle_l	knee_angle_l_beta	ankle_angle_l	subtalar_angle_l	mtp_angle_l	L5_S1_Flex_Ext	L5_S1_Lat_Bending	L5_S1_axial_rotation	L4_L5_Flex_Ext	L4_L5_Lat_Bending	L4_L5_axial_rotation	L3_L4_Flex_Ext	L3_L4_Lat_Bending	L3_L4_axial_rotation	L2_L3_Flex_Ext	L2_L3_Lat_Bending	L2_L3_axial_rotation	L1_L2_Flex_Ext	L1_L2_Lat_Bending	L1_L2_axial_rotation	L1_T12_Flex_Ext	L1_T12_Lat_Bending	L1_T12_axial_rotation	Abs_r3	Abs_r2	Abs_r1	Abs_t1	Abs_t2	neck_flexion	neck_bending	neck_rotation	arm_flex_r	arm_add_r	arm_rot_r	elbow_flex_r	pro_sup_r	wrist_flex_r	wrist_dev_r	arm_flex_l	arm_add_l	arm_rot_l	elbow_flex_l	pro_sup_l	wrist_flex_l	wrist_dev_l
0.000000	1.183647	-2.972775	92.048528	0.216891	0.871453	0.693745	5.895219	0.266952	-10.669691	6.693085	0.116816	24.501236	14.491538	0.000000	6.583969	-1.296589	-1.225611	7.467254	0.130328	20.073990	-2.193734	0.000000	0.143032	0.075337	0.351135	0.265625	0.100198	0.373080	0.234988	0.183174	0.373080	0.163472	0.183174	0.307243	0.132820	0.153627	0.285297	0.081729	0.116697	0.263351	1.021666	0.852224	1.952905	0.000000	0.000000	16.556177	1.330226	-2.195521	10.129160	-6.009055	55.146020	40.457126	25.921642	-1.884199	8.703795	12.512892	-4.587394	46.936087	34.988102	65.326793	6.592007	4.871813
0.024390	1.237461	-2.440404	92.131490	0.217460	0.872235	0.689386	4.687407	0.481500	-8.984067	5.963146	0.104077	24.423140	12.607641	0.000000	5.406821	-1.314712	0.759312	6.801044	0.118701	19.392965	-4.928524	0.000000	0.139763	0.074124	0.356559	0.259554	0.098585	0.378844	0.229616	0.180225	0.378844	0.159735	0.180225	0.311989	0.129784	0.151154	0.289704	0.079861	0.114818	0.267419	0.998312	0.838505	1.983074	0.000000	0.000000	16.088048	1.441171	-2.412574	10.065597	-5.835302	55.977441	39.751700	25.499123	-1.372214	9.123439	12.049147	-4.809466	47.034365	35.310601	63.879695	6.219198	5.014322
0.048780	1.271121	-2.005333	92.170821	0.217968	0.872804	0.685857	3.704396	0.650186	-7.535676	5.364340	0.093625	24.347744	11.012735	0.000000	4.449053	-1.326121	2.131995	6.285878	0.109709	18.909675	-6.884008	0.000000	0.136835	0.072145	0.366430	0.254116	0.095953	0.389332	0.224806	0.175413	0.389332	0.156389	0.175413	0.320627	0.127065	0.147118	0.297725	0.078188	0.111753	0.274823	0.977399	0.816119	2.037976	0.000000	0.000000	15.761418	1.553724	-2.572044	10.023276	-5.686856	56.645861	39.160483	25.327426	-0.965097	9.415897	11.676696	-4.997639	47.169390	35.557738	62.750270	5.957820	5.148581
0.073171	1.286441	-1.658928	92.169572	0.218420	0.873182	0.683082	2.926224	0.776906	-6.304395	4.885214	0.085263	24.275214	9.683578	0.000000	3.690618	-1.331091	2.955039	5.906605	0.103090	18.603164	-8.140764	0.000000	0.134219	0.069491	0.380474	0.249258	0.092423	0.404254	0.220509	0.168961	0.404254	0.153399	0.168961	0.332915	0.124636	0.141706	0.309135	0.076693	0.107642	0.285355	0.958714	0.786097	2.116082	0.000000	0.000000	15.561501	1.666255	-2.679332	9.999951	-5.561284	57.166810	38.672660	25.376872	-0.654190	9.593980	11.387811	-5.154367	47.337882	35.735569	61.906254	5.796227	5.273740
0.097561	1.285237	-1.392556	92.130796	0.218823	0.873390	0.680986	2.332928	0.865555	-5.270103	4.514315	0.078790	24.205715	8.596924	0.000000	3.111469	-1.329900	3.291043	5.648073	0.098577	18.452478	-8.779368	0.000000	0.131885	0.066254	0.398415	0.244925	0.088117	0.423316	0.216675	0.161089	0.423316	0.150732	0.161089	0.348613	0.122469	0.135104	0.323712	0.075359	0.102627	0.298811	0.942045	0.749473	2.215864	0.000000	0.000000	15.473513	1.777135	-2.739840	9.993373	-5.456153	57.555818	38.277414	25.617783	-0.430832	9.670501	11.174762	-5.282107	47.536560	35.850150	61.315382	5.722771	5.388947
0.121951	1.269326	-1.197581	92.057544	0.219183	0.873452	0.679491	1.904548	0.920030	-4.412678	4.240191	0.074005	24.139412	7.729529	0.000000	2.691562	-1.322825	3.202606	5.495130	0.095908	18.436665	-8.880398	0.000000	0.129804	0.062524	0.419978	0.241060	0.083156	0.446227	0.213256	0.152020	0.446227	0.148353	0.152020	0.367481	0.120536	0.127498	0.341233	0.074170	0.096849	0.314984	0.927180	0.707280	2.335794	0.000000	0.000000	15.482667	1.884734	-2.758972	10.001295	-5.369028	57.828414	37.963931	26.020483	-0.286365	9.658270	11.029819	-5.383315	47.762143	35.907535	60.945390	5.725805	5.493351
0.146341	1.240522	-1.065371	91.952867	0.219504	0.873387	0.678523	1.621121	0.944227	-3.712000	4.051390	0.070710	24.076469	7.058150	0.000000	2.410850	-1.310141	2.752330	5.432626	0.094817	18.534769	-8.524433	0.000000	0.127946	0.058393	0.444890	0.237609	0.077662	0.472696	0.210203	0.141976	0.472696	0.146230	0.141976	0.389279	0.118811	0.119075	0.361473	0.073108	0.090450	0.333668	0.913906	0.660551	2.474345	0.000000	0.000000	15.574177	1.987423	-2.742130	10.021470	-5.297477	58.000128	37.721396	26.555293	-0.212129	9.570100	10.945254	-5.460447	48.011351	35.913780	60.764012	5.793683	5.586100
0.170732	1.200641	-0.987289	91.819819	0.219794	0.873220	0.678004	1.462685	0.942042	-3.147947	3.936459	0.068704	24.017053	6.559541	0.000000	2.249286	-1.292127	2.002813	5.445407	0.095040	18.725837	-7.792049	0.000000	0.126281	0.053952	0.472875	0.234516	0.071757	0.502430	0.207467	0.131180	0.502430	0.144327	0.131180	0.413766	0.117265	0.110019	0.384211	0.072157	0.083572	0.354656	0.902013	0.610319	2.629989	0.000000	0.000000	15.733260	2.083572	-2.694715	10.051649	-5.239064	58.086489	37.538993	27.192536	-0.199466	9.418803	10.913337	-5.515957	48.280903	35.874941	60.738984	5.914759	5.666345
0.195122	1.151498	-0.954703	91.661450	0.220058	0.872970	0.677860	1.409280	0.917372	-2.700396	3.883946	0.067788	23.961328	6.210458	0.000000	2.186824	-1.269060	1.016655	5.518324	0.096313	18.988914	-6.763825	0.000000	0.124779	0.049293	0.503658	0.231728	0.065560	0.535137	0.205000	0.119852	0.535137	0.142610	0.119852	0.440701	0.115870	0.100519	0.409222	0.071299	0.076356	0.377744	0.891286	0.557617	2.801196	0.000000	0.000000	15.945128	2.171551	-2.622131	10.089585	-5.191356	58.103028	37.405908	27.902533	-0.239716	9.217191	10.926338	-5.552303	48.567518	35.797073	60.838041	6.077384	5.733232
0.219512	1.094910	-0.958979	91.480813	0.220302	0.872662	0.678013	1.440942	0.874112	-2.349228	3.882400	0.067761	23.909460	5.987658	0.000000	2.203419	-1.241215	-0.143544	5.636224	0.098371	19.303047	-5.520338	0.000000	0.123411	0.044508	0.536965	0.229187	0.059195	0.570526	0.202753	0.108216	0.570526	0.141047	0.108216	0.469845	0.114600	0.090760	0.436284	0.070517	0.068942	0.402724	0.881515	0.503478	2.986441	0.000000	0.000000	16.194996	2.249732	-2.529780	10.133032	-5.151920	58.065274	37.311325	28.655608	-0.324221	8.978075	10.976528	-5.571939	48.867915	35.686233	61.028919	6.269912	5.785912
0.243902	1.032691	-0.991481	91.280959	0.220531	0.872316	0.678388	1.537710	0.816159	-2.074319	3.920366	0.068423	23.861612	5.867895	0.000000	2.279024	-1.208870	-1.415185	5.783955	0.100949	19.647281	-4.142165	0.000000	0.122147	0.039686	0.572522	0.226840	0.052782	0.608304	0.200676	0.096493	0.608304	0.139602	0.096493	0.500956	0.113426	0.080928	0.465174	0.069795	0.061474	0.429391	0.872487	0.448936	3.184193	0.000000	0.000000	16.468080	2.316484	-2.423064	10.179740	-5.118322	57.988757	37.244430	29.422081	-0.444320	8.714267	11.056177	-5.577322	49.178813	35.548475	61.279352	6.480698	5.823532
0.268293	0.979255	-1.041126	91.094562	0.220704	0.871958	0.678858	1.662937	0.762741	-1.815785	3.964184	0.069188	23.819437	5.759267	0.000000	2.392779	-1.182886	-2.633983	5.953536	0.103909	19.979179	-2.801033	0.000000	0.121218	0.036575	0.605476	0.225115	0.048645	0.643318	0.199150	0.088928	0.643318	0.138541	0.088928	0.529791	0.112563	0.074584	0.491949	0.069264	0.056655	0.454107	0.865851	0.413743	3.367475	0.000000	0.000000	16.743249	2.395764	-2.255088	10.215137	-5.087345	57.905792	37.178470	30.043026	-0.572498	8.475819	11.142606	-5.579727	49.472822	35.435997	61.476383	6.662251	5.898581
0.292683	0.914377	-1.096327	90.887914	0.220898	0.871643	0.679332	1.803338	0.687125	-1.692416	4.021890	0.070195	23.814093	5.867126	0.000000	2.509288	-1.150217	-3.931611	6.104348	0.106541	20.333043	-1.336153	0.000000	0.119924	0.032054	0.641501	0.222710	0.042631	0.681595	0.197023	0.077935	0.681595	0.137061	0.077935	0.561314	0.111361	0.065364	0.521220	0.068524	0.049651	0.481126	0.856602	0.362597	3.567838	0.000000	0.000000	16.982371	2.452821	-2.106043	10.255237	-5.045573	57.810392	37.100056	30.648191	-0.721740	8.259619	11.227297	-5.570297	49.708496	35.309703	61.693053	6.826365	5.915402
0.317073	0.847691	-1.141445	90.661157	0.221121	0.871390	0.679705	1.919136	0.619317	-1.387359	4.053801	0.070752	23.786455	5.762003	0.000000	2.584912	-1.095363	-4.846985	6.188931	0.108017	20.528073	-0.451073	0.000000	0.118015	0.027474	0.678868	0.219165	0.036541	0.721298	0.193887	0.066801	0.721298	0.134879	0.066801	0.594010	0.109589	0.056026	0.551581	0.067434	0.042558	0.509151	0.842969	0.310796	3.775662	0.000000	0.000000	17.165103	2.484816	-1.953913	10.304740	-5.004560	57.783759	37.015962	31.086648	-0.884037	8.044974	11.297045	-5.557834	49.895061	35.189584	61.855837	6.933920	5.933561
0.341463	0.777037	-1.172961	90.409247	0.221390	0.871214	0.679946	2.011143	0.549150	-1.045344	4.081711	0.071239	23.754266	5.637797	0.000000	2.619196	-1.031942	-5.611345	6.223122	0.108614	20.647737	0.195157	0.000000	0.115967	0.022635	0.721566	0.215362	0.030104	0.766663	0.190522	0.055035	0.766663	0.132538	0.055035	0.631370	0.107687	0.046157	0.586272	0.066263	0.035061	0.541174	0.828338	0.256051	4.013131	0.000000	0.000000	17.290702	2.478446	-1.827707	10.359736	-4.957877	57.826197	36.901424	31.397549	-1.044924	7.835040	11.371350	-5.533921	50.090722	35.033727	61.942267	7.047063	5.918015
